<svg width="786" height="737" viewBox="0 0 786 737" fill="none" xmlns="http://www.w3.org/2000/svg">
<g clip-path="url(#clip0)">
<path fill-rule="evenodd" clip-rule="evenodd" d="M409.976 371.691C428.03 377.704 446.792 392.577 457.371 412.107C474.12 443.028 464.103 470.629 454.854 496.113C449.745 510.189 444.871 523.62 444.871 536.607C444.871 566.124 457.239 619.272 495.871 634.107C558.371 658.107 553.871 701.607 541.371 736.607C544.112 734.393 547.1 732.054 550.275 729.568C592.29 696.676 667.077 638.128 634.371 506.107C603.725 382.399 485.865 348.587 408.937 364.664C447.764 365.427 488.235 382.72 516.363 414.392C546.738 448.594 562.517 499.318 546.77 563.53L562.066 550.145L566.676 555.413L538.862 579.75L526.092 545.501L532.651 543.056L539.849 562.359C555.303 499.95 539.919 451.457 511.129 419.04C484.601 389.169 446.518 372.738 409.976 371.691Z" fill="#E6BF60"/>
<path fill-rule="evenodd" clip-rule="evenodd" d="M376.381 365.847C358.327 359.834 339.565 344.962 328.986 325.431C312.237 294.51 322.254 266.909 331.503 241.425C336.612 227.349 341.486 213.919 341.486 200.931C341.486 171.414 329.118 118.266 290.486 103.431C227.986 79.4314 232.486 35.9314 244.986 0.931411C242.246 3.14491 239.257 5.48433 236.082 7.97029C194.067 40.8619 119.28 99.4097 151.986 231.431C182.633 355.139 300.493 388.952 377.421 372.874C338.594 372.112 298.122 354.818 269.994 323.146C239.619 288.944 223.841 238.22 239.588 174.009L224.291 187.394L219.681 182.126L247.495 157.789L260.266 192.037L253.707 194.482L246.509 175.179C231.055 237.588 246.438 286.081 275.228 318.498C301.757 348.369 339.84 364.8 376.381 365.847Z" fill="#E6BF60"/>
<path fill-rule="evenodd" clip-rule="evenodd" d="M399.046 384.777C416.411 416.947 421.222 458.143 408.617 496.053C394.938 537.194 360.634 574.763 298.859 592.584L311.977 576.699L306.58 572.241L283.305 600.425L318.289 612.344L320.546 605.718L301.306 599.163C364.788 580.694 400.827 541.668 415.26 498.261C428.624 458.066 423.365 414.369 404.612 380.363C457 438.946 486.647 557.922 394.836 646.317C296.855 740.652 208.758 705.158 159.266 685.218C155.525 683.711 152.005 682.293 148.718 681.026C185.278 674.351 225.201 656.499 214.735 590.372C208.267 549.498 248.11 512.213 273.673 497.455C284.92 490.961 298.988 488.467 313.733 485.853C340.427 481.121 369.339 475.996 387.743 446.03C399.367 427.104 402.867 403.419 399.046 384.777Z" fill="#E6BF60"/>
<path fill-rule="evenodd" clip-rule="evenodd" d="M387.31 352.761C383.49 334.119 386.99 310.434 398.614 291.508C417.018 261.543 445.929 256.417 472.624 251.685C487.368 249.071 501.437 246.577 512.684 240.083C538.246 225.325 578.09 188.04 571.621 147.166C561.156 81.0395 601.078 63.1866 637.639 56.5119C634.352 55.2452 630.832 53.827 627.091 52.3199C577.598 32.3799 489.501 -3.11365 391.52 91.2216C299.71 179.616 329.356 298.592 381.745 357.175C362.991 323.169 357.732 279.472 371.097 239.277C385.529 195.87 421.568 156.844 485.051 138.375L465.811 131.82L468.068 125.194L503.051 137.113L479.776 165.297L474.379 160.839L487.498 144.954C425.722 162.775 391.419 200.344 377.739 241.485C365.134 279.395 369.946 320.591 387.31 352.761Z" fill="#E6BF60"/>
<path fill-rule="evenodd" clip-rule="evenodd" d="M382.248 381.856C368.014 394.485 345.753 403.296 323.55 402.692C288.398 401.737 269.503 379.261 252.058 358.509C242.421 347.047 233.228 336.111 221.98 329.617C196.418 314.859 144.206 298.996 112.043 325.034C60.0083 367.161 24.5859 341.514 0.525378 313.189C1.07225 316.669 1.60399 320.427 2.16893 324.42C9.64647 377.251 22.957 471.293 153.644 508.979C276.101 544.292 364.314 459.129 388.854 384.468C368.78 417.712 333.567 444.115 292.075 452.639C247.268 461.843 195.45 450.145 147.715 404.402L151.658 424.342L144.791 425.7L137.622 389.445L173.666 395.509L172.505 402.412L152.189 398.994C198.51 443.582 248.198 454.506 290.666 445.782C329.8 437.743 363.07 412.978 382.248 381.856Z" fill="#E6BF60"/>
<path fill-rule="evenodd" clip-rule="evenodd" d="M404.108 355.683C418.342 343.054 440.604 334.242 462.806 334.846C497.959 335.801 516.853 358.277 534.299 379.029C543.935 390.491 553.129 401.428 564.376 407.921C589.938 422.68 642.15 438.543 674.313 412.504C726.348 370.377 761.771 396.025 785.831 424.35C785.284 420.87 784.752 417.112 784.188 413.119C776.71 360.287 763.399 266.246 632.712 228.559C510.255 193.246 422.042 278.41 397.502 353.07C417.576 319.826 452.789 293.423 494.281 284.9C539.089 275.696 590.906 287.393 638.641 333.136L634.698 313.196L641.565 311.838L648.735 348.094L612.69 342.029L613.851 335.126L634.167 338.545C587.846 293.956 538.159 283.033 495.69 291.757C456.557 299.795 423.286 324.561 404.108 355.683Z" fill="#E6BF60"/>
</g>
<defs>
<clipPath id="clip0">
<rect width="786" height="737" fill="white"/>
</clipPath>
</defs>
</svg>
